<svg height="512" viewBox="0 0 60 60" width="512" xmlns="http://www.w3.org/2000/svg"><g id="Page-1" fill="none" fill-rule="evenodd"><g id="134---Copy-Files" fill-rule="nonzero"><g id="Icons" transform="translate(1 1)"><path id="Shape" d="m28 40.5v5c0 .2761424.2238576.5.5.5h11c.2761424 0 .5.2238576.5.5v1.5c0 .189386.1070012.3625176.2763932.4472136s.372098.066418.5236068-.0472136l3.2-2.4v4c0 2.209139-1.790861 4-4 4h-36c-2.209139 0-4-1.790861-4-4v-37h9c2.209139 0 4-1.790861 4-4v-9h27c2.209139 0 4 1.790861 4 4v36l-3.2-2.4c-.1515088-.1136316-.3542148-.1319096-.5236068-.0472136s-.2763932.2578276-.2763932.4472136v1.5c0 .2761424-.2238576.5-.5.5h-11c-.2761424 0-.5.2238576-.5.5z" fill="#ffe0b2"/><g fill="#dfc49c"><path id="Shape" d="m39.5 46h-3c.2761424 0 .5.2238576.5.5v1.5c0 .189386.1070012.3625176.2763932.4472136s.372098.066418.5236068-.0472136l2.2-1.65v-.25c0-.2761424-.2238576-.5-.5-.5z"/><path id="Shape" d="m28.5 40h-3c-.2761424 0-.5.2238576-.5.5v5c0 .2761424.2238576.5.5.5h3c-.2761424 0-.5-.2238576-.5-.5v-5c0-.2761424.2238576-.5.5-.5z"/><path id="Shape" d="m41 50c0 2.209139-1.790861 4-4 4h3c2.209139 0 4-1.790861 4-4v-4l-3 2.25z"/><path id="Shape" d="m37 38v1.5c0 .2761424-.2238576.5-.5.5h3c.2761424 0 .5-.2238576.5-.5v-.25l-2.2-1.65c-.1515088-.1136316-.3542148-.1319096-.5236068-.0472136s-.2763932.2578276-.2763932.4472136z"/><path id="Shape" d="m40 0h-3c2.209139 0 4 1.790861 4 4v33.75l3 2.25v-36c0-2.209139-1.790861-4-4-4z"/></g><path id="Shape" d="m13 0v9c0 2.209139-1.790861 4-4 4h-9z" fill="#a0522d"/><path id="Shape" d="m34 5h-6c-.5522847 0-1-.44771525-1-1s.4477153-1 1-1h6c.5522847 0 1 .44771525 1 1s-.4477153 1-1 1z" fill="#f5f5f5"/><path id="Shape" d="m40 5h-2c-.5522847 0-1-.44771525-1-1s.4477153-1 1-1h2c.5522847 0 1 .44771525 1 1s-.4477153 1-1 1z" fill="#f5f5f5"/><path id="Shape" d="m58 8v46c0 2.209139-1.790861 4-4 4h-36c-2.209139 0-4-1.790861-4-4h26c2.209139 0 4-1.790861 4-4v-4l3.47-2.6c.1229908-.096287.1948483-.2438016.1948483-.4s-.0718575-.303713-.1948483-.4l-3.47-2.6v-36h10c2.209139 0 4 1.790861 4 4z" fill="#a0522d"/><path id="Shape" d="m54 4h-3c2.209139 0 4 1.790861 4 4v46c0 2.209139-1.790861 4-4 4h3c2.209139 0 4-1.790861 4-4v-46c0-2.209139-1.790861-4-4-4z" fill="#783e22"/><path id="Shape" d="m48 9h-4c-.5522847 0-1-.44771525-1-1s.4477153-1 1-1h4c.5522847 0 1 .44771525 1 1s-.4477153 1-1 1z" fill="#f5f5f5"/><path id="Shape" d="m54 9h-2c-.5522847 0-1-.44771525-1-1s.4477153-1 1-1h2c.5522847 0 1 .44771525 1 1s-.4477153 1-1 1z" fill="#f5f5f5"/><path id="Shape" d="m47.47 43.4-3.47 2.6-3.2 2.4c-.1515088.1136316-.3542148.1319096-.5236068.0472136s-.2763932-.2578276-.2763932-.4472136v-1.5c0-.2761424-.2238576-.5-.5-.5h-11c-.2761424 0-.5-.2238576-.5-.5v-5c0-.2761424.2238576-.5.5-.5h11c.2761424 0 .5-.2238576.5-.5v-1.5c0-.189386.1070012-.3625176.2763932-.4472136s.372098-.066418.5236068.0472136l3.2 2.4 3.47 2.6c.1229908.096287.1948483.2438016.1948483.4s-.0718575.303713-.1948483.4z" fill="#a4c400"/><path id="Shape" d="m47.47 42.6-3.47-2.6-3.2-2.4c-.1515088-.1136316-.3542148-.1319096-.5236068-.0472136s-.2763932.2578276-.2763932.4472136v1.25l1 .75 3.47 2.6c.1229908.096287.1948483.2438016.1948483.4s-.0718575.303713-.1948483.4l-3.47 2.6-1 .75v1.25c0 .189386.1070012.3625176.2763932.4472136s.372098.066418.5236068-.0472136l3.2-2.4 3.47-2.6c.1229908-.096287.1948483-.2438016.1948483-.4s-.0718575-.303713-.1948483-.4z" fill="#90ac00"/></g><g id="Layer_2" fill="#000"><path id="Shape" d="m9 20h9c.5522847 0 1-.4477153 1-1s-.4477153-1-1-1h-9c-.55228475 0-1 .4477153-1 1s.44771525 1 1 1z"/><path id="Shape" d="m23 20h15c.5522847 0 1-.4477153 1-1s-.4477153-1-1-1h-15c-.5522847 0-1 .4477153-1 1s.4477153 1 1 1z"/><path id="Shape" d="m38 23h-9c-.5522847 0-1 .4477153-1 1s.4477153 1 1 1h9c.5522847 0 1-.4477153 1-1s-.4477153-1-1-1z"/><path id="Shape" d="m9 25h15c.5522847 0 1-.4477153 1-1s-.4477153-1-1-1h-15c-.55228475 0-1 .4477153-1 1s.44771525 1 1 1z"/><path id="Shape" d="m19 29c0-.5522847-.4477153-1-1-1h-9c-.55228475 0-1 .4477153-1 1s.44771525 1 1 1h9c.5522847 0 1-.4477153 1-1z"/><path id="Shape" d="m38 28h-15c-.5522847 0-1 .4477153-1 1s.4477153 1 1 1h15c.5522847 0 1-.4477153 1-1s-.4477153-1-1-1z"/><path id="Shape" d="m55 4h-9.1c-.4784327-2.3264168-2.5248992-3.99700171-4.9-4h-27c-.2651948.00005664-.5195073.10545063-.707.293l-13 13c-.18754937.1874927-.29294336.4418052-.293.707v37c.00330612 2.7600532 2.23994685 4.9966939 5 5h9.1c.4784327 2.3264168 2.5248992 3.9970017 4.9 4h36c2.7600532-.0033061 4.9966939-2.2399468 5-5v-46c-.0033061-2.76005315-2.2399468-4.99669388-5-5zm-13 44v-.5c0-.8284271-.6715729-1.5-1.5-1.5h-10.5v-4h10.5c.8284271 0 1.5-.6715729 1.5-1.5v-.5l5.334 4zm-29-44.586v6.586c0 1.6568542-1.3431458 3-3 3h-6.586zm-11 47.586v-36h8c2.7600532-.0033061 4.9966939-2.2399468 5-5v-8h26c1.6568542 0 3 1.34314575 3 3v34l-1.6-1.2c-.4545265-.3408949-1.0626444-.3957288-1.5708204-.1416408s-.8291796.7734827-.8291796 1.3416408v1h-10.5c-.8284271 0-1.5.6715729-1.5 1.5v5c0 .8284271.6715729 1.5 1.5 1.5h10.5v1c0 .5681581.3210036 1.0875528.8291796 1.3416408s1.1162939.1992541 1.5708204-.1416408l1.6-1.2v2c0 1.6568542-1.3431458 3-3 3h-36c-1.65685425 0-3-1.3431458-3-3zm56 4c0 1.6568542-1.3431458 3-3 3h-36c-1.2667854-.0052514-2.3937454-.8056491-2.816-2h24.816c2.7600532-.0033061 4.9966939-2.2399468 5-5v-3.5l3.067-2.3c.3777088-.2832816.6-.727864.6-1.2s-.2222912-.9167184-.6-1.2l-3.067-2.3v-6.5h6c.5522847 0 1-.4477153 1-1s-.4477153-1-1-1h-6v-3h6c.5522847 0 1-.4477153 1-1s-.4477153-1-1-1h-6v-3h6c.5522847 0 1-.4477153 1-1s-.4477153-1-1-1h-6v-16h9c1.6568542 0 3 1.34314575 3 3z"/></g></g></g></svg>